<?xml version="1.0" encoding="UTF-8"?>
<svg xmlns="http://www.w3.org/2000/svg" xmlns:xlink="http://www.w3.org/1999/xlink" width="10px" height="10px" viewBox="0 0 10 10" version="1.1">
<g id="surface1">
<path style=" stroke:none;fill-rule:nonzero;fill:rgb(100%,100%,100%);fill-opacity:1;" d="M 5 9.808594 C 7.738281 9.808594 9.957031 7.652344 9.957031 4.992188 C 9.957031 2.332031 7.738281 0.179688 5 0.179688 C 2.261719 0.179688 0.0429688 2.332031 0.0429688 4.992188 C 0.0429688 7.652344 2.261719 9.808594 5 9.808594 Z M 5 9.808594 "/>
<path style=" stroke:none;fill-rule:nonzero;fill:rgb(0%,0%,0%);fill-opacity:1;" d="M 4.804688 7.265625 C 4.71875 7.222656 4.632812 7.15625 4.570312 7.070312 L 1.308594 3.414062 C 1.289062 3.390625 1.289062 3.390625 1.289062 3.371094 C 1.269531 3.304688 1.308594 3.214844 1.371094 3.195312 L 2.003906 2.949219 C 2.046875 2.929688 2.089844 2.929688 2.128906 2.929688 L 2.171875 2.949219 L 5.433594 6.539062 L 5.476562 6.5625 L 5.519531 6.628906 C 5.601562 6.71875 5.625 6.847656 5.582031 6.980469 C 5.539062 7.089844 5.476562 7.179688 5.390625 7.246094 C 5.308594 7.3125 5.203125 7.355469 5.097656 7.378906 C 5.078125 7.378906 5.054688 7.398438 5.011719 7.398438 C 4.949219 7.332031 4.886719 7.3125 4.804688 7.265625 Z M 5.582031 6.234375 C 5.496094 6.1875 5.414062 6.101562 5.351562 6.035156 L 3.183594 3.699219 C 3.160156 3.679688 3.160156 3.679688 3.160156 3.65625 C 3.140625 3.589844 3.183594 3.523438 3.246094 3.480469 L 3.855469 3.28125 C 3.898438 3.257812 3.941406 3.257812 3.980469 3.257812 L 4.023438 3.28125 L 6.191406 5.550781 L 6.234375 5.570312 L 6.277344 5.617188 C 6.359375 5.703125 6.382812 5.835938 6.359375 5.945312 C 6.316406 6.035156 6.253906 6.121094 6.171875 6.1875 C 6.085938 6.253906 5.980469 6.296875 5.875 6.296875 C 5.855469 6.296875 5.835938 6.296875 5.8125 6.296875 C 5.730469 6.296875 5.644531 6.277344 5.582031 6.234375 Z M 5.222656 4.183594 C 6.234375 3.523438 7.265625 3.0625 7.558594 3.546875 C 7.980469 3.257812 8.570312 3.214844 8.71875 3.875 C 8.359375 3.632812 7.875 4.117188 7.601562 4.449219 L 6.613281 5.59375 Z M 5.222656 4.183594 "/>
</g>
</svg>
